<svg xmlns="http://www.w3.org/2000/svg" viewBox="0 0 380 220" width="800"><text x="60" y="30" dominant-baseline="middle" font-family="Arial" font-size="11">Monitoring here</text><path stroke="#000" stroke-linecap="square" stroke-width="2" d="M90 40v15M90 55h3l-3 5-3-5h3M140 90V75M140 75h3l-3-5-3 5h3M220 120V75M220 75h3l-3-5-3 5h3M140 110v15M140 125h3l-3 5-3-5h3M220 140v45M220 185h3l-3 5-3-5h3"/><text x="210" y="130" dominant-baseline="middle" font-family="Arial" font-size="11">240V</text><text x="130" y="100" dominant-baseline="middle" font-family="Arial" font-size="11">120V</text><text x="250" y="80" dominant-baseline="middle" font-family="Arial" font-size="11">Heating element</text><text x="30" y="190" dominant-baseline="middle" font-family="Arial" font-size="11">L2</text><text x="30" y="50" dominant-baseline="middle" font-family="Arial" font-size="11">L1</text><text x="30" y="130" dominant-baseline="middle" font-family="Arial" font-size="11">Neutral</text><path stroke="#000" stroke-linecap="square" stroke-width="2" d="M30 140h150M30 200h310M30 60h310M340 60v30M340 170v30"/><path stroke="#000" stroke-width="2" fill="none" d="M330 90h20v20h-20zM330 110h20v20h-20zM330 130h20v20h-20zM330 150h20v20h-20z"/><path stroke="#000" stroke-linecap="square" stroke-width="2" d="M180 60v27M180 113v27"/><circle cx="180" cy="100" stroke="#000" stroke-width="2" fill="none" r="12"/><text x="180" y="100" dominant-baseline="middle" font-family="Arial" font-size="12" text-anchor="middle">M</text><circle cx="180" cy="60" stroke="#000" stroke-width="2" r="2"/></svg>